*****THESE EPISODES ARE PERFECT AUDIO/VIDEO QUALITY*****
*****NO DROPPED FRAMES, NO DODGY AUDIO/VIDEO SYNC ISSUES*****

*****NO REPACKED FILES - THESE ARE MY OWN SOURCED AND CONVERTED FILES*****

I PAID FOR THEM, PURCHASED THE SOFTWARE AND HARDWARE NEEDED TO CAPTURE THEM AND NOW I'M SHARING THEM LIKE ALL GOOD LIL PIRATES SHOULD :)


Media Info: 19 DOUBLE EPISODES (episode description included as text file)

General - Info same for all episodes

Format                                   : MPEG-4
Format profile                           : Base Media
Codec ID                                 : isom
File size                                : 351 MiB
Duration                                 : 23mn 6s
Overall bit rate mode                    : Variable
Overall bit rate                         : 2 121 Kbps

Video
ID                                       : 1
Format                                   : MPEG-4 Visual
Format profile                           : Simple@L1
Format settings, BVOP                    : No
Format settings, QPel                    : No
Format settings, GMC                     : No warppoints
Format settings, Matrix                  : Default (H.263)
Codec ID                                 : 20
Duration                                 : 23mn 6s
Bit rate mode                            : Constant
Bit rate                                 : 2 020 Kbps
Width                                    : 1 280 pixels
Height                                   : 720 pixels
Display aspect ratio                     : 16:9
Frame rate mode                          : Constant
Frame rate                               : 23.976 fps
Color space                              : YUV
Chroma subsampling                       : 4:2:0
Bit depth                                : 8 bits
Scan type                                : Progressive
Compression mode                         : Lossy
Bits/(Pixel*Frame)                       : 0.091
Stream size                              : 334 MiB (95%)
Writing library                          : Lavc53.8.0

Audio
ID                                       : 2
Format                                   : AAC
Format/Info                              : Advanced Audio Codec
Format profile                           : LC
Codec ID                                 : 40
Duration                                 : 23mn 6s
Bit rate mode                            : Variable
Bit rate                                 : 96.0 Kbps
Maximum bit rate                         : 128 Kbps
Channel(s)                               : 2 channels
Channel positions                        : Front: L R
Sampling rate                            : 44.1 KHz
Compression mode                         : Lossy
Stream size                              : 16.0 MiB (5%)
